<svg width="80" height="40" viewBox="0 0 80 40" fill="none" xmlns="http://www.w3.org/2000/svg">
<g clip-path="url(#clip0_773_2)">
<path d="M12.2682 39.9857L24.0485 39.4929C25.3729 39.4312 26.6276 38.5688 26.4882 37.46C26.3487 35.9816 25.8608 23.0456 25.8608 12.5735V10.6638C25.8608 10.1095 26.3487 9.73984 26.9064 9.73984L34.5043 9.67826C36.2469 9.67826 36.9441 9.24705 36.9441 7.52226L37.1532 2.65581C37.1532 1.239 36.1773 0.499796 34.7134 0.499796L2.43969 0.191797C1.11528 0.130197 0.278821 1.1774 0 2.34781L1.32441 7.58384C1.67293 9.30863 1.95176 9.92463 3.76411 9.73984L10.1073 9.80147C10.3862 9.80147 10.5953 9.92463 10.8044 10.1095C11.0135 10.2943 11.0832 10.5407 11.0832 10.7871L9.82847 37.8297C9.68911 39 10.9438 39.9857 12.2682 39.9857Z" fill="#D0006F"/>
<path d="M64.8959 39.0616C68.3116 39.0616 71.309 38.7536 74.6548 38.5073C75.3516 38.5073 75.9095 38.1992 76.328 37.768C76.7458 37.2752 76.8853 36.7208 76.8853 36.1048C76.7459 33.8872 76.4669 31.2384 76.328 29.0208C76.328 27.8504 75.1427 27.0496 73.888 27.1112C72.0758 27.1112 70.8906 29.452 64.3385 29.452C57.5769 29.2672 56.3222 24.832 56.3222 18.9799C56.3222 13.9287 57.9253 9.43181 62.8048 9.37023C64.8264 9.37023 64.6869 10.171 64.6869 11.8342C64.6869 12.5734 65.5932 13.1279 66.4295 13.0663L77.7916 12.5119C78.2795 12.5119 78.7674 12.3887 79.1159 12.0191C79.4643 11.7111 79.6037 11.2799 79.5343 10.8487C78.4885 2.16299 70.4027 0.130172 62.1774 0.00697187C48.2363 -0.239428 40.6384 6.04381 40.6384 19.1031C40.6384 34.0104 53.6037 39.0616 64.8959 39.0616Z" fill="#D0006F"/>
</g>
<defs>
<clipPath id="clip0_773_2">
<rect width="80" height="40" fill="white"/>
</clipPath>
</defs>
</svg>
